<mxfile host="app.diagrams.net" modified="2024-07-15T11:52:11.006Z" agent="Mozilla/5.0 (X11; Linux x86_64; rv:127.0) Gecko/20100101 Firefox/127.0" version="24.6.5" etag="tclPhBLwgV3b9P9Mbo0j" type="github">
  <diagram name="ページ1" id="DD5XAeYZaYLY3N-9UsP2">
    <mxGraphModel>
      <root>
        <mxCell id="0" />
        <mxCell id="1" parent="0" />
      </root>
    </mxGraphModel>
  </diagram>
</mxfile>
